HIERARCHY
ROOT Hips
{
	OFFSET 0.000000 0.000000 0.000000
	CHANNELS 6 Xposition Yposition Zposition Zrotation Yrotation Xrotation 
	JOINT LHipJoint
	{
		OFFSET 0.000000 0.000000 0.000000
		CHANNELS 3 Zrotation Yrotation Xrotation
		JOINT LeftUpLeg
		{
			OFFSET 1.363060 -1.794630 0.839290
			CHANNELS 3 Zrotation Yrotation Xrotation
			JOINT LeftLeg
			{
				OFFSET 2.448110 -6.726130 0.000000
				CHANNELS 3 Zrotation Yrotation Xrotation
				JOINT LeftFoot
				{
					OFFSET 2.562200 -7.039590 0.000000
					CHANNELS 3 Zrotation Yrotation Xrotation
					JOINT LeftToeBase
					{
						OFFSET 0.157640 -0.433110 2.322550
						CHANNELS 3 Zrotation Yrotation Xrotation
						End Site
						{
							OFFSET 0.000000 0.000000 0.000000
						}
					}
				}
			}
		}
	}
	JOINT RHipJoint
	{
		OFFSET 0.000000 0.000000 0.000000
		CHANNELS 3 Zrotation Yrotation Xrotation
		JOINT RightUpLeg
		{
			OFFSET -1.305520 -1.794630 0.839290
			CHANNELS 3 Zrotation Yrotation Xrotation
			JOINT RightLeg
			{
				OFFSET -2.542530 -6.985550 0.000000
				CHANNELS 3 Zrotation Yrotation Xrotation
				JOINT RightFoot
				{
					OFFSET -2.568260 -7.056230 0.000000
					CHANNELS 3 Zrotation Yrotation Xrotation
					JOINT RightToeBase
					{
						OFFSET -0.164730 -0.452590 2.363150
						CHANNELS 3 Zrotation Yrotation Xrotation
						End Site
						{
							OFFSET 0.000000 0.000000 0.000000
						}
					}
				}
			}
		}
	}
	JOINT LowerBack
	{
		OFFSET 0.000000 0.000000 0.000000
		CHANNELS 3 Zrotation Yrotation Xrotation
		JOINT Spine
		{
			OFFSET 0.028270 2.035590 -0.193380
			CHANNELS 3 Zrotation Yrotation Xrotation
			JOINT Spine1
			{
				OFFSET 0.056720 2.048850 -0.042750
				CHANNELS 3 Zrotation Yrotation Xrotation
				JOINT Neck
				{
					OFFSET 0.000000 0.000000 0.000000
					CHANNELS 3 Zrotation Yrotation Xrotation
					JOINT Neck1
					{
						OFFSET -0.054170 1.746240 0.172020
						CHANNELS 3 Zrotation Yrotation Xrotation
						JOINT Head
						{
							OFFSET 0.104070 1.761360 -0.123970
							CHANNELS 3 Zrotation Yrotation Xrotation
							End Site
							{
								OFFSET 0.000000 0.000000 0.000000
							}
						}
					}
				}
				JOINT LeftShoulder
				{
					OFFSET 0.000000 0.000000 0.000000
					CHANNELS 3 Zrotation Yrotation Xrotation
					JOINT LeftArm
					{
						OFFSET 3.362410 1.200890 -0.311210
						CHANNELS 3 Zrotation Yrotation Xrotation
						JOINT LeftForeArm
						{
							OFFSET 4.983000 -0.000000 -0.000000
							CHANNELS 3 Zrotation Yrotation Xrotation
							JOINT LeftHand
							{
								OFFSET 3.483560 -0.000000 -0.000000
								CHANNELS 3 Zrotation Yrotation Xrotation
								JOINT LeftFingerBase
								{
									OFFSET 0.000000 0.000000 0.000000
									CHANNELS 3 Zrotation Yrotation Xrotation
									JOINT LeftHandIndex1
									{
										OFFSET 0.715260 -0.000000 -0.000000
										CHANNELS 3 Zrotation Yrotation Xrotation
										End Site
										{
											OFFSET 0.000000 0.000000 0.000000
										}
									}
								}
								JOINT LThumb
								{
									OFFSET 0.000000 0.000000 0.000000
									CHANNELS 3 Zrotation Yrotation Xrotation
									End Site
									{
										OFFSET 0.000000 0.000000 0.000000
									}
								}
							}
						}
					}
				}
				JOINT RightShoulder
				{
					OFFSET 0.000000 0.000000 0.000000
					CHANNELS 3 Zrotation Yrotation Xrotation
					JOINT RightArm
					{
						OFFSET -3.136600 1.374050 -0.404650
						CHANNELS 3 Zrotation Yrotation Xrotation
						JOINT RightForeArm
						{
							OFFSET -5.241900 -0.000000 -0.000000
							CHANNELS 3 Zrotation Yrotation Xrotation
							JOINT RightHand
							{
								OFFSET -3.444170 -0.000000 -0.000000
								CHANNELS 3 Zrotation Yrotation Xrotation
								JOINT RightFingerBase
								{
									OFFSET 0.000000 0.000000 0.000000
									CHANNELS 3 Zrotation Yrotation Xrotation
									JOINT RightHandIndex1
									{
										OFFSET -0.622530 -0.000000 -0.000000
										CHANNELS 3 Zrotation Yrotation Xrotation
										End Site
										{
											OFFSET 0.000000 0.000000 0.000000
										}
									}
								}
								JOINT RThumb
								{
									OFFSET 0.000000 0.000000 0.000000
									CHANNELS 3 Zrotation Yrotation Xrotation
									End Site
									{
										OFFSET 0.000000 0.000000 0.000000
									}
								}
							}
						}
					}
				}
			}
		}
	}
}
MOTION
Frames: 5
Frame Time: 0.008333
7.099164 17.906193 -3.337801 7.386011 -49.794753 -6.388837 -3.850394 1.061445 2.741773 -22.571398 -2.403854 -10.694479 -0.304535 6.412511 19.795721 1.153865 -12.174554 3.094472 0.507800 4.567700 12.679500 0.184132 -0.900233 0.779131 13.526115 2.672525 -23.638688 -11.253921 -17.883434 64.169043 -0.144237 -0.559437 1.442878 -0.003200 -0.366600 1.007200 -4.640236 0.988981 7.900640 0.671215 0.876213 1.558538 1.453398 0.437636 -2.694498 -9.897105 -2.984978 -14.991854 4.511852 -2.947929 21.563043 3.555100 -2.215300 14.166900 -5.904560 -0.943998 -1.622627 -78.139833 5.639803 24.222534 20.812171 -29.427936 -6.799586 -0.789769 -2.325682 2.686993 17.000606 21.325420 7.310600 -7.125000 0.000000 0.000000 -12.199500 54.306200 -2.821800 4.986648 1.143520 -1.172301 78.858608 -6.382173 20.404167 -19.014805 27.901751 -5.113928 0.421203 -0.186130 2.096412 -16.087464 11.288427 -3.365900 7.125000 0.000000 0.000000 7.444200 -18.118500 4.800800 
6.999497 17.879294 -3.250580 7.817292 -49.506143 -6.763593 -3.828541 1.066928 2.726420 -23.022917 -2.936047 -10.341899 -0.192015 6.667190 20.560074 1.123435 -11.776416 2.662556 0.699900 5.347600 14.902700 0.192896 -0.880254 0.768308 13.144217 2.937216 -24.533047 -10.924070 -17.756463 63.132629 -0.200634 -0.244213 1.063290 -0.000100 0.057500 -0.158100 -5.044496 0.892585 7.925945 0.646602 0.707704 1.545206 1.653410 0.349883 -2.710514 -9.931863 -2.986396 -14.860648 4.594728 -2.948245 21.355807 3.590500 -2.201500 14.037700 -5.890938 -0.953338 -1.616772 -78.038516 5.407929 24.207303 21.012435 -29.658946 -6.925035 -0.765797 -2.325119 2.866247 16.707847 21.410279 7.193900 -7.125000 0.000000 0.000000 -12.566900 54.331000 -2.916500 4.970765 1.157546 -1.167860 78.552345 -6.518798 21.293641 -19.221169 28.156232 -5.220234 0.431786 -0.168974 1.414429 -16.269270 11.054315 -3.334400 7.125000 0.000000 0.000000 7.311600 -18.359900 4.674600 
6.900331 17.841555 -3.166370 7.957362 -49.163651 -6.921395 -3.813609 1.075589 2.738740 -23.299285 -3.131296 -9.987504 -0.092760 6.864266 21.163133 1.127176 -11.703152 2.061906 0.661500 5.201700 14.484600 0.197841 -0.865216 0.750125 13.013014 3.143853 -25.442914 -10.572237 -17.613239 62.014237 -0.206140 -0.235975 0.642282 -0.015500 0.802600 -2.205800 -5.402865 0.819051 8.095394 0.723174 0.561629 1.492926 2.026042 0.276290 -2.884335 -9.927412 -2.981467 -14.782817 4.490359 -2.926283 21.233737 3.536400 -2.200400 13.960000 -5.869811 -0.982794 -1.613732 -78.054275 5.184663 24.332289 21.154664 -29.813403 -7.014925 -0.743369 -2.326024 2.776643 16.491398 21.417807 7.093400 -7.125000 0.000000 0.000000 -12.808000 54.293300 -2.962000 4.972783 1.161399 -1.172285 78.233626 -6.652066 21.622493 -19.347317 28.307442 -5.284451 0.432331 -0.165015 1.282514 -16.277378 11.021036 -3.325500 7.125000 0.000000 0.000000 7.305900 -18.396800 4.664900 
6.799158 17.807831 -3.075535 7.852048 -48.903916 -6.950720 -3.807052 1.088491 2.765325 -23.380824 -3.173304 -9.650526 -0.014375 7.014983 21.624065 1.140692 -11.572456 1.394000 0.439600 4.254200 11.793100 0.203823 -0.854112 0.732026 13.047762 3.376575 -26.140879 -10.172210 -17.432814 60.736251 -0.218536 -0.202867 0.023483 -0.005500 0.477500 -1.312000 -5.618257 0.695245 8.350334 0.871316 0.356177 1.408554 2.472846 0.175837 -3.156566 -10.140331 -2.936703 -14.810697 4.490969 -2.792447 21.356969 3.591700 -2.176600 14.028000 -5.847626 -0.998005 -1.624051 -78.259338 5.189299 24.341869 21.310551 -29.981662 -7.108549 -0.766999 -2.318599 2.664083 16.909537 21.339424 7.263600 -7.125000 0.000000 0.000000 -12.316800 54.292000 -2.845300 4.981945 1.166309 -1.177212 77.874559 -6.727705 21.591326 -19.294720 28.236640 -5.254839 0.427592 -0.177435 1.773510 -16.247418 11.215113 -3.378000 7.125000 0.000000 0.000000 7.328700 -18.189800 4.713400 
6.693569 17.785749 -2.982492 7.894419 -48.767853 -7.073889 -3.793657 1.113818 2.784698 -23.520512 -3.308919 -9.211081 0.048237 7.134358 21.987381 1.147847 -11.358996 0.744486 0.329400 3.688600 10.202100 0.222777 -0.829182 0.700783 12.946602 3.764718 -26.648914 -9.715361 -17.208136 59.262088 -0.260420 -0.024552 -0.658538 -0.014100 -0.767300 2.108800 -5.438207 0.621388 8.097720 0.746315 0.310730 1.573361 2.144412 0.127643 -2.683618 -10.080865 -3.036006 -15.114854 4.660192 -2.938900 21.299158 3.642000 -2.198700 14.078200 -5.854948 -1.006144 -1.602111 -77.756998 4.625174 24.691092 21.518631 -30.224270 -7.238624 -0.793833 -2.302732 2.524384 17.418495 21.229470 7.462800 -7.125000 0.000000 0.000000 -11.710700 54.268200 -2.695400 4.973562 1.182751 -1.159152 78.193454 -6.194995 20.943867 -19.103047 28.021497 -5.161184 0.418077 -0.197208 2.470337 -16.088208 11.555102 -3.445300 7.125000 0.000000 0.000000 7.444400 -17.835500 4.847700 
